<svg width="45" height="49" viewBox="0 0 45 49" fill="none" xmlns="http://www.w3.org/2000/svg">
<path d="M34.7 48H9.96997C7.21997 48 4.96997 45.75 4.96997 43V12.42C4.96997 9.67 7.21997 7.42 9.96997 7.42H34.7C37.45 7.42 39.7 9.67 39.7 12.42V43C39.7 45.75 37.45 48 34.7 48Z" stroke="#231F20" stroke-width="1.325" stroke-miterlimit="10" stroke-linecap="round" stroke-linejoin="round"/>
<path d="M11.04 16.65V44.33" stroke="#231F20" stroke-width="1.325" stroke-miterlimit="10" stroke-linecap="round" stroke-linejoin="round"/>
<path d="M16.69 16.65V44.33" stroke="#231F20" stroke-width="1.325" stroke-miterlimit="10" stroke-linecap="round" stroke-linejoin="round"/>
<path d="M22.33 16.65V44.33" stroke="#231F20" stroke-width="1.325" stroke-miterlimit="10" stroke-linecap="round" stroke-linejoin="round"/>
<path d="M27.98 16.65V44.33" stroke="#231F20" stroke-width="1.325" stroke-miterlimit="10" stroke-linecap="round" stroke-linejoin="round"/>
<path d="M33.63 16.65V44.33" stroke="#231F20" stroke-width="1.325" stroke-miterlimit="10" stroke-linecap="round" stroke-linejoin="round"/>
<path d="M41.67 11.57H2.98999C1.50999 11.57 0.309998 10.36 0.309998 8.89C0.309998 7.41 1.51999 6.21 2.98999 6.21H41.67C43.15 6.21 44.35 7.42 44.35 8.89C44.36 10.37 43.15 11.57 41.67 11.57Z" fill="#231F20"/>
<path d="M32.75 6.27C32.75 3.52 30.5 1.27 27.75 1.27H16.93C14.18 1.27 11.93 3.52 11.93 6.27" stroke="#231F20" stroke-width="1.325" stroke-miterlimit="10" stroke-linecap="round" stroke-linejoin="round"/>
</svg>
