<svg width="45" height="56" viewBox="0 0 45 56" fill="none" xmlns="http://www.w3.org/2000/svg">
<path d="M16.51 0.94H41.71C42.7 0.94 43.51 1.75 43.51 2.74V53.14C43.51 54.13 42.7 54.94 41.71 54.94H3.31C2.32 54.94 1.51 54.13 1.51 53.14V15.94" fill="white"/>
<path d="M16.51 0.94H41.71C42.7 0.94 43.51 1.75 43.51 2.74V53.14C43.51 54.13 42.7 54.94 41.71 54.94H3.31C2.32 54.94 1.51 54.13 1.51 53.14V15.94" stroke="#231F20" stroke-width="1.325" stroke-miterlimit="10" stroke-linecap="round" stroke-linejoin="round"/>
<path d="M15.71 0.94C16.7 0.94 17.51 1.75 17.51 2.74V15.14C17.51 16.13 16.7 16.94 15.71 16.94H3.31C2.32 16.94 1.51 16.13 1.51 15.14L15.71 0.94Z" fill="white" stroke="#231F20" stroke-width="1.325" stroke-miterlimit="10" stroke-linecap="round" stroke-linejoin="round"/>
<path d="M13.4454 35.7205V28.4478H15.9028C16.4733 28.4478 16.9397 28.5508 17.3019 28.7567C17.6665 28.9603 17.9364 29.2361 18.1116 29.5841C18.2868 29.9321 18.3744 30.3204 18.3744 30.7489C18.3744 31.1774 18.2868 31.5669 18.1116 31.9172C17.9388 32.2676 17.6712 32.547 17.309 32.7553C16.9468 32.9613 16.4828 33.0643 15.917 33.0643H14.1556V32.283H15.8886C16.2792 32.283 16.5929 32.2155 16.8296 32.0806C17.0664 31.9456 17.238 31.7634 17.3445 31.5337C17.4534 31.3017 17.5079 31.0401 17.5079 30.7489C17.5079 30.4577 17.4534 30.1973 17.3445 29.9677C17.238 29.738 17.0652 29.5581 16.8261 29.4279C16.587 29.2953 16.2697 29.229 15.8744 29.229H14.3261V35.7205H13.4454ZM22.0374 35.7205H19.793V28.4478H22.1368C22.8423 28.4478 23.446 28.5934 23.9479 28.8846C24.4498 29.1734 24.8345 29.5889 25.102 30.131C25.3695 30.6708 25.5033 31.3171 25.5033 32.0699C25.5033 32.8275 25.3683 33.4797 25.0984 34.0266C24.8286 34.5711 24.4356 34.9902 23.9195 35.2837C23.4034 35.5749 22.776 35.7205 22.0374 35.7205ZM20.6737 34.9393H21.9805C22.5819 34.9393 23.0802 34.8232 23.4756 34.5912C23.8709 34.3592 24.1657 34.029 24.3598 33.6005C24.5539 33.172 24.651 32.6618 24.651 32.0699C24.651 31.4828 24.5551 30.9774 24.3634 30.5536C24.1716 30.1275 23.8851 29.8008 23.504 29.5735C23.1228 29.3438 22.6482 29.229 22.08 29.229H20.6737V34.9393ZM26.9805 35.7205V28.4478H31.3413V29.229H27.8612V31.6864H31.0146V32.4677H27.8612V35.7205H26.9805Z" fill="black"/>
</svg>
