<svg width="48" height="47" viewBox="0 0 48 47" fill="none" xmlns="http://www.w3.org/2000/svg">
<path d="M47.03 26.19L41.81 26.84L39.21 32.71L42.47 36.62L38.56 41.18L34 38.57L28.78 40.53L26.83 45.74H21.62L19.66 40.53L14.45 38.57L9.89001 41.18L5.98001 36.62L9.23999 32.71L6.63 26.84L1.42001 26.19V20.28L6.63 19.63L9.23999 13.77L5.98001 9.85999L9.89001 5.29999L14.45 7.89998L19.66 5.94998L21.62 0.72998H26.83L28.78 5.94998L34 7.89998L38.56 5.29999L42.47 9.85999L39.21 13.77L41.81 19.63L47.03 20.28V26.19Z" stroke="#231F20" stroke-width="1.325" stroke-miterlimit="10" stroke-linecap="round" stroke-linejoin="round"/>
<path d="M24.22 32.61C29.3949 32.61 33.59 28.4149 33.59 23.24C33.59 18.0651 29.3949 13.87 24.22 13.87C19.0451 13.87 14.85 18.0651 14.85 23.24C14.85 28.4149 19.0451 32.61 24.22 32.61Z" stroke="#231F20" stroke-width="1.325" stroke-miterlimit="10" stroke-linecap="round" stroke-linejoin="round"/>
</svg>
